<?xml version="1.0" encoding="utf-8"?>
<!-- Generator: Adobe Illustrator 25.1.0, SVG Export Plug-In . SVG Version: 6.00 Build 0)  -->
<svg version="1.1" xmlns="http://www.w3.org/2000/svg" xmlns:xlink="http://www.w3.org/1999/xlink" x="0px" y="0px"
	 viewBox="0 0 841.89 595.28" style="enable-background:new 0 0 841.89 595.28;" xml:space="preserve">
<style type="text/css">
	.st0{fill:#EC008C;}
	.st1{fill:#F062A4;}
	.st2{opacity:0.85;fill:#FAD1E3;stroke:#EC008C;stroke-width:4;stroke-miterlimit:10;}
	.st3{opacity:0.81;fill:#FCE3EE;stroke:#EC008C;stroke-width:4;stroke-miterlimit:10;}
	.st4{opacity:0.85;fill:#FCE1ED;stroke:#EC008C;stroke-width:4;stroke-miterlimit:10;}
	.st5{opacity:0.76;fill:#FCE1ED;stroke:#EC008C;stroke-width:4;stroke-miterlimit:10;}
	.st6{opacity:0.85;fill:#FAD3E4;stroke:#EC008C;stroke-width:4;stroke-miterlimit:10;}
	.st7{opacity:0.85;fill:#FBD7E7;stroke:#EC008C;stroke-width:4;stroke-miterlimit:10;}
	.st8{opacity:0.85;fill:#FAD5E5;stroke:#EC008C;stroke-width:4;stroke-miterlimit:10;}
	.st9{fill:#EE3D96;}
	.st10{fill:#EE3D96;stroke:#EE3D96;stroke-miterlimit:10;}
	.st11{fill:#ED3694;}
</style>
<g id="Layer_4">
	<circle class="st0" cx="290.67" cy="269.68" r="109.79"/>
	<circle class="st0" cx="390.33" cy="202.06" r="50.67"/>
	<circle class="st0" cx="510.73" cy="297.97" r="120.4"/>
	<circle class="st0" cx="185.94" cy="251.89" r="42.23"/>
	<circle class="st0" cx="416.93" cy="322.41" r="81.5"/>
	<circle class="st0" cx="649.77" cy="278.63" r="66.3"/>
	<circle class="st0" cx="701.63" cy="309.89" r="28.29"/>
</g>
<g id="Layer_4_copy">
	<circle class="st1" cx="297.01" cy="254.94" r="106.42"/>
	<circle class="st1" cx="393.6" cy="189.4" r="49.12"/>
	<circle class="st1" cx="510.3" cy="282.36" r="116.7"/>
	<circle class="st1" cx="195.5" cy="237.7" r="40.93"/>
	<circle class="st1" cx="419.39" cy="306.05" r="78.99"/>
	<circle class="st1" cx="653.67" cy="269.89" r="64.26"/>
	<circle class="st1" cx="705.33" cy="297.97" r="27.42"/>
	<circle class="st0" cx="330.49" cy="233.97" r="11.52"/>
	<circle class="st2" cx="333.53" cy="236.33" r="11.52"/>
	<circle class="st0" cx="582.26" cy="233.53" r="11.52"/>
	<circle class="st2" cx="584.39" cy="236.33" r="11.52"/>
</g>
<g id="Layer_5">
	<path class="st0" d="M316.14,282.02c-0.97,8.61-3.72,15.33-8.25,20.14c-4.53,4.81-10.93,7.22-19.19,7.22
		c-2.68,0-5.37-0.31-8.08-0.93c-2.71-0.62-5.33-1.73-7.86-3.33c-2.54-1.61-4.92-3.8-7.14-6.59c-2.22-2.79-4.13-6.35-5.73-10.68
		l-3.08-8.28c-2.22-0.06-4.02-0.18-5.39-0.38c-1.37-0.2-2.59-0.38-3.68-0.55c-0.17,0.17-0.33,0.39-0.47,0.68
		c-0.14,0.28-0.21,0.68-0.21,1.18c0,0.68,0.45,1.25,1.37,1.73c0.91,0.48,2.76,0.8,5.56,0.97l4.87,12.16v7.18
		c-3.19,2.25-6.98,3.96-11.37,5.11c-4.39,1.15-9.01,1.73-13.85,1.73c-3.53,0-6.77-0.35-9.7-1.06c-2.94-0.7-5.49-1.79-7.65-3.25
		c-2.17-1.46-3.85-3.28-5.04-5.45c-1.2-2.17-1.8-4.74-1.8-7.73v-80.22c0-1.29,0.65-2.58,1.97-3.84c1.31-1.27,3.11-2.46,5.39-3.59
		c2.28-1.13,4.96-2.15,8.04-3.08c3.08-0.93,6.37-1.73,9.87-2.41c3.5-0.68,7.15-1.2,10.94-1.56c3.79-0.37,7.54-0.55,11.24-0.55
		c8.26,0,15.8,0.87,22.61,2.62c6.81,1.75,12.64,4.35,17.48,7.81c4.84,3.46,8.59,7.74,11.24,12.84c2.65,5.1,3.98,11.02,3.98,17.78
		c0,3.94-0.61,7.57-1.84,10.89c-1.23,3.32-2.86,6.28-4.92,8.87c-2.05,2.59-4.46,4.8-7.22,6.63c-2.76,1.83-5.68,3.22-8.76,4.18
		c0,1.01,0.28,1.72,0.85,2.11c0.57,0.39,1.25,0.59,2.05,0.59c0.8,0,1.99-0.28,3.59-0.84c1.59-0.56,3.39-1.57,5.39-3.04
		L316.14,282.02z M257.24,247.82c0.17,0.11,0.44,0.18,0.81,0.21c0.37,0.03,0.61,0.04,0.73,0.04c1.37,0,2.34-0.42,2.91-1.27
		c0.57-0.84,0.86-2.22,0.86-4.14v-3.04c0-1.97-0.24-3.4-0.73-4.31c-0.48-0.9-1.38-1.35-2.69-1.35c-0.29,0-0.63,0.03-1.03,0.09
		c-0.4,0.06-0.71,0.14-0.94,0.25c0.06,0.45,0.09,0.93,0.09,1.44s0,1.04,0,1.61V247.82z"/>
	<path class="st0" d="M335.7,305.66c-2,0.82-4.4,1.23-7.21,1.23c-1.48,0-2.91-0.17-4.29-0.51c-1.38-0.34-2.59-0.86-3.64-1.55
		c-1.05-0.69-1.88-1.58-2.5-2.64c-0.62-1.06-0.93-2.32-0.93-3.77v-43.97c1.09-1.02,2.63-1.94,4.63-2.77c2-0.82,4.4-1.23,7.21-1.23
		c1.48,0,2.91,0.17,4.29,0.51c1.38,0.34,2.59,0.86,3.64,1.55c1.05,0.7,1.88,1.58,2.5,2.64c0.62,1.06,0.93,2.32,0.93,3.77v43.97
		C339.24,303.92,337.7,304.84,335.7,305.66z"/>
	<path class="st0" d="M390.43,251.2c0.34,0.6,0.66,1.26,0.95,1.98s0.53,1.48,0.72,2.26c0.19,0.78,0.33,1.56,0.44,2.34
		c0.11,0.78,0.16,1.51,0.16,2.19c0,2.92-0.53,5.09-1.59,6.51c-1.06,1.42-2.52,2.13-4.37,2.13h-16.01c-0.98,0-1.47,0.41-1.47,1.23
		c0,0.06,0,0.17,0,0.34s0.03,0.28,0.08,0.34h18.99c0.24,0.43,0.46,0.93,0.68,1.51c0.21,0.58,0.39,1.19,0.54,1.83
		c0.15,0.64,0.26,1.29,0.36,1.96c0.09,0.67,0.14,1.3,0.14,1.89c0,1.7-0.16,3.23-0.48,4.58c-0.32,1.35-0.74,2.46-1.27,3.34h-8.62
		c-2.25,0-4.11,0.06-5.58,0.19c-1.47,0.13-2.63,0.29-3.48,0.49c-0.85,0.2-1.44,0.42-1.79,0.66c-0.34,0.24-0.52,0.49-0.52,0.75
		c0,0.23,0.03,0.44,0.1,0.64c0.07,0.2,0.22,0.37,0.46,0.51c0.66-0.23,1.34-0.43,2.03-0.6c0.69-0.17,1.46-0.3,2.3-0.4
		c0.85-0.1,1.79-0.18,2.84-0.23c1.05-0.06,2.26-0.08,3.64-0.08h11.16c0.29,0.45,0.58,0.96,0.87,1.51s0.55,1.19,0.77,1.92
		c0.22,0.72,0.41,1.55,0.56,2.49c0.15,0.94,0.22,2.02,0.22,3.23c0,0.77-0.05,1.58-0.16,2.45c-0.11,0.87-0.27,1.72-0.48,2.58
		c-0.21,0.85-0.49,1.66-0.83,2.43c-0.34,0.77-0.75,1.43-1.23,2h-29.76c-1.56,0-3.02-0.21-4.37-0.62c-1.35-0.41-2.53-1.05-3.54-1.92
		c-1.01-0.87-1.8-1.96-2.38-3.28c-0.58-1.32-0.87-2.9-0.87-4.75v-40.48c0-1.36,1.47-2.36,4.41-2.98c2.94-0.62,7.43-0.94,13.47-0.94
		H390.43z"/>
	<path class="st0" d="M402.49,209.99c0-1.44,1.09-3.05,3.28-4.83c2.19-1.78,5.35-3.45,9.5-5.02c4.14-1.56,9.2-2.88,15.19-3.94
		c5.98-1.06,12.73-1.59,20.26-1.59c9.28,0,17.18,0.99,23.72,2.95c6.54,1.97,11.86,4.61,15.98,7.92c4.11,3.31,7.12,7.14,9.01,11.49
		c1.9,4.35,2.84,8.89,2.84,13.64c0,1.81-0.15,3.64-0.44,5.49c-0.29,1.84-0.73,3.61-1.31,5.3c-0.59,1.69-1.33,3.27-2.23,4.74
		c-0.91,1.47-1.94,2.67-3.11,3.61c-1.64-0.88-3.24-1.52-4.81-1.92c-1.57-0.41-2.95-0.61-4.11-0.61c-1.23,0-2.22,0.25-2.98,0.75
		c-0.76,0.5-1.14,1.56-1.14,3.19c4.55,0.19,8.49,1.19,11.82,3c3.33,1.81,6.07,4.14,8.23,6.99c2.16,2.85,3.76,6.09,4.81,9.75
		c1.05,3.66,1.58,7.46,1.58,11.39c0,6.75-1.31,12.47-3.94,17.16c-2.63,4.69-6.43,8.49-11.42,11.39c-4.99,2.91-11.12,5.02-18.38,6.33
		c-7.26,1.31-15.54,1.97-24.81,1.97c-6.65,0-12.4-0.11-17.24-0.33c-4.84-0.22-9.02-0.58-12.52-1.08
		c-6.19-0.87-10.69-2.98-13.52-6.33c-2.83-3.34-4.24-8.49-4.24-15.43V209.99z M450.01,246.1c0.18,0.13,0.45,0.2,0.83,0.23
		c0.38,0.03,0.63,0.05,0.74,0.05c1.4,0,2.39-0.47,2.98-1.41c0.58-0.94,0.88-2.47,0.88-4.59v-0.56c0-2.19-0.25-3.78-0.74-4.78
		c-0.5-1-1.42-1.5-2.76-1.5c-0.29,0-0.64,0.03-1.05,0.09c-0.41,0.06-0.73,0.16-0.96,0.28c0.06,0.5,0.09,1.03,0.09,1.59
		c0,0.56,0,1.16,0,1.78V246.1z M450.01,281.45c0.18,0.13,0.45,0.2,0.83,0.23c0.38,0.03,0.63,0.05,0.74,0.05
		c1.4,0,2.39-0.39,2.98-1.17c0.58-0.78,0.88-2.23,0.88-4.36v-1.78c0-2.19-0.25-3.81-0.74-4.88c-0.5-1.06-1.42-1.59-2.76-1.59
		c-0.29,0-0.64,0.03-1.05,0.09c-0.41,0.06-0.73,0.16-0.96,0.28c0.06,0.5,0.09,1.03,0.09,1.59c0,0.56,0,1.16,0,1.78V281.45z"/>
	<path class="st3" d="M321.93,287c-0.97,8.61-3.72,15.33-8.25,20.14c-4.53,4.81-10.93,7.22-19.19,7.22c-2.68,0-5.37-0.31-8.08-0.93
		c-2.71-0.62-5.33-1.73-7.86-3.34c-2.54-1.61-4.92-3.8-7.14-6.59c-2.22-2.79-4.13-6.35-5.73-10.68l-3.08-8.28
		c-2.22-0.06-4.02-0.18-5.39-0.38c-1.37-0.2-2.59-0.38-3.68-0.55c-0.17,0.17-0.33,0.39-0.47,0.68c-0.14,0.28-0.21,0.68-0.21,1.18
		c0,0.68,0.45,1.25,1.37,1.73c0.91,0.48,2.76,0.8,5.56,0.97l4.87,12.16v7.18c-3.19,2.25-6.98,3.96-11.37,5.11
		c-4.39,1.15-9.01,1.73-13.85,1.73c-3.53,0-6.77-0.35-9.7-1.06c-2.94-0.7-5.49-1.79-7.65-3.25c-2.17-1.46-3.85-3.28-5.04-5.45
		c-1.2-2.17-1.8-4.74-1.8-7.73v-80.22c0-1.29,0.65-2.58,1.97-3.84c1.31-1.27,3.11-2.46,5.39-3.59c2.28-1.13,4.96-2.15,8.04-3.08
		c3.08-0.93,6.37-1.73,9.87-2.41c3.5-0.68,7.15-1.2,10.94-1.56c3.79-0.37,7.54-0.55,11.24-0.55c8.26,0,15.8,0.87,22.61,2.62
		c6.81,1.75,12.64,4.35,17.48,7.81c4.84,3.46,8.59,7.74,11.24,12.84c2.65,5.1,3.98,11.02,3.98,17.78c0,3.94-0.61,7.57-1.84,10.89
		c-1.23,3.32-2.86,6.28-4.92,8.87c-2.05,2.59-4.46,4.8-7.22,6.63c-2.76,1.83-5.68,3.22-8.76,4.18c0,1.01,0.28,1.72,0.85,2.11
		c0.57,0.39,1.25,0.59,2.05,0.59c0.8,0,1.99-0.28,3.59-0.84c1.59-0.56,3.39-1.58,5.39-3.04L321.93,287z M263.04,252.8
		c0.17,0.11,0.44,0.18,0.81,0.21c0.37,0.03,0.61,0.04,0.73,0.04c1.37,0,2.34-0.42,2.91-1.27c0.57-0.84,0.86-2.22,0.86-4.14v-3.04
		c0-1.97-0.24-3.4-0.73-4.31c-0.48-0.9-1.38-1.35-2.69-1.35c-0.29,0-0.63,0.03-1.03,0.09c-0.4,0.06-0.71,0.14-0.94,0.25
		c0.06,0.45,0.09,0.93,0.09,1.44s0,1.04,0,1.61V252.8z"/>
	<path class="st4" d="M340.51,307.65c-2,0.82-4.4,1.23-7.21,1.23c-1.48,0-2.91-0.17-4.29-0.51c-1.38-0.34-2.59-0.86-3.64-1.55
		c-1.05-0.69-1.88-1.58-2.5-2.64c-0.62-1.06-0.93-2.32-0.93-3.77v-43.97c1.09-1.02,2.63-1.94,4.63-2.77c2-0.82,4.4-1.23,7.21-1.23
		c1.48,0,2.91,0.17,4.29,0.51c1.38,0.34,2.59,0.86,3.64,1.55c1.05,0.7,1.88,1.58,2.5,2.64c0.62,1.06,0.93,2.32,0.93,3.77v43.97
		C344.05,305.91,342.51,306.83,340.51,307.65z"/>
	<path class="st5" d="M394.9,254.94c0.34,0.6,0.66,1.26,0.95,1.98s0.53,1.48,0.72,2.26c0.19,0.78,0.33,1.56,0.44,2.34
		c0.11,0.78,0.16,1.51,0.16,2.19c0,2.92-0.53,5.09-1.59,6.51c-1.06,1.42-2.52,2.13-4.37,2.13h-16.01c-0.98,0-1.47,0.41-1.47,1.23
		c0,0.06,0,0.17,0,0.34s0.03,0.28,0.08,0.34h18.99c0.24,0.43,0.46,0.93,0.68,1.51c0.21,0.58,0.39,1.19,0.54,1.83
		c0.15,0.64,0.26,1.29,0.36,1.96c0.09,0.67,0.14,1.3,0.14,1.89c0,1.7-0.16,3.23-0.48,4.58c-0.32,1.35-0.74,2.46-1.27,3.34h-8.62
		c-2.25,0-4.11,0.06-5.58,0.19c-1.47,0.13-2.63,0.29-3.48,0.49c-0.85,0.2-1.44,0.42-1.79,0.66c-0.34,0.24-0.52,0.49-0.52,0.75
		c0,0.23,0.03,0.44,0.1,0.64c0.07,0.2,0.22,0.37,0.46,0.51c0.66-0.23,1.34-0.43,2.03-0.6c0.69-0.17,1.46-0.3,2.3-0.4
		c0.85-0.1,1.79-0.18,2.84-0.23c1.05-0.06,2.26-0.08,3.64-0.08h11.16c0.29,0.45,0.58,0.96,0.87,1.51s0.55,1.19,0.77,1.92
		c0.22,0.72,0.41,1.55,0.56,2.49c0.15,0.94,0.22,2.02,0.22,3.23c0,0.77-0.05,1.58-0.16,2.45c-0.11,0.87-0.27,1.72-0.48,2.58
		c-0.21,0.85-0.49,1.66-0.83,2.43c-0.34,0.77-0.75,1.43-1.23,2h-29.76c-1.56,0-3.02-0.21-4.37-0.62c-1.35-0.41-2.53-1.05-3.54-1.92
		c-1.01-0.87-1.8-1.96-2.38-3.28c-0.58-1.32-0.87-2.9-0.87-4.75v-40.48c0-1.36,1.47-2.36,4.41-2.98c2.94-0.62,7.43-0.94,13.47-0.94
		H394.9z"/>
	<path class="st6" d="M408.86,214.61c0-1.44,1.09-3.05,3.28-4.83c2.19-1.78,5.35-3.45,9.5-5.02c4.14-1.56,9.2-2.88,15.19-3.94
		c5.98-1.06,12.73-1.59,20.26-1.59c9.28,0,17.18,0.99,23.72,2.95c6.54,1.97,11.86,4.61,15.98,7.92c4.11,3.31,7.12,7.14,9.01,11.49
		c1.9,4.35,2.84,8.89,2.84,13.64c0,1.81-0.15,3.64-0.44,5.49c-0.29,1.84-0.73,3.61-1.31,5.3c-0.59,1.69-1.33,3.27-2.23,4.74
		c-0.91,1.47-1.94,2.67-3.11,3.61c-1.64-0.88-3.24-1.52-4.81-1.92c-1.57-0.41-2.95-0.61-4.11-0.61c-1.23,0-2.22,0.25-2.98,0.75
		c-0.76,0.5-1.14,1.56-1.14,3.19c4.55,0.19,8.49,1.19,11.82,3c3.33,1.81,6.07,4.14,8.23,6.99c2.16,2.85,3.76,6.09,4.81,9.75
		c1.05,3.66,1.58,7.46,1.58,11.39c0,6.75-1.31,12.47-3.94,17.16c-2.63,4.69-6.43,8.49-11.42,11.39c-4.99,2.91-11.12,5.02-18.38,6.33
		c-7.26,1.31-15.54,1.97-24.81,1.97c-6.65,0-12.4-0.11-17.24-0.33c-4.84-0.22-9.02-0.58-12.52-1.08
		c-6.19-0.87-10.69-2.98-13.52-6.33c-2.83-3.34-4.24-8.49-4.24-15.43V214.61z M456.38,250.72c0.18,0.13,0.45,0.2,0.83,0.23
		c0.38,0.03,0.63,0.05,0.74,0.05c1.4,0,2.39-0.47,2.98-1.41c0.58-0.94,0.88-2.47,0.88-4.59v-0.56c0-2.19-0.25-3.78-0.74-4.78
		c-0.5-1-1.42-1.5-2.76-1.5c-0.29,0-0.64,0.03-1.05,0.09c-0.41,0.06-0.73,0.16-0.96,0.28c0.06,0.5,0.09,1.03,0.09,1.59
		c0,0.56,0,1.16,0,1.78V250.72z M456.38,286.07c0.18,0.13,0.45,0.2,0.83,0.23c0.38,0.03,0.63,0.05,0.74,0.05
		c1.4,0,2.39-0.39,2.98-1.17c0.58-0.78,0.88-2.23,0.88-4.36v-1.78c0-2.19-0.25-3.81-0.74-4.88c-0.5-1.06-1.42-1.59-2.76-1.59
		c-0.29,0-0.64,0.03-1.05,0.09c-0.41,0.06-0.73,0.16-0.96,0.28c0.06,0.5,0.09,1.03,0.09,1.59c0,0.56,0,1.16,0,1.78V286.07z"/>
	<path class="st0" d="M591.37,306.53c-2,0.82-4.4,1.23-7.21,1.23c-1.48,0-2.91-0.17-4.29-0.51c-1.38-0.34-2.59-0.86-3.64-1.55
		c-1.05-0.69-1.88-1.58-2.5-2.64c-0.62-1.06-0.93-2.32-0.93-3.77v-43.97c1.09-1.02,2.63-1.94,4.63-2.77c2-0.82,4.4-1.23,7.21-1.23
		c1.48,0,2.91,0.17,4.29,0.51c1.38,0.34,2.59,0.86,3.64,1.55c1.05,0.7,1.88,1.58,2.5,2.64c0.62,1.06,0.93,2.32,0.93,3.77v43.97
		C594.91,304.78,593.37,305.7,591.37,306.53z"/>
	<path class="st0" d="M542.64,306.62c-2.62,0-5.21-0.25-7.76-0.75c-2.56-0.5-4.97-1.26-7.24-2.28c-2.28-1.02-4.37-2.31-6.29-3.87
		c-1.92-1.56-3.57-3.41-4.98-5.53c-1.4-2.13-2.49-4.55-3.27-7.28c-0.78-2.72-1.17-5.76-1.17-9.11c0-4.97,0.84-9.26,2.52-12.88
		c1.68-3.62,3.93-6.61,6.73-8.98c2.8-2.37,6.04-4.12,9.7-5.26c3.66-1.13,7.49-1.7,11.47-1.7c4.74,0,8.99,0.7,12.76,2.11
		c3.77,1.4,6.96,3.37,9.58,5.9c2.62,2.53,4.63,5.56,6.03,9.11c1.4,3.55,2.1,7.45,2.1,11.71c0,5.05-0.79,9.39-2.36,13.03
		c-1.57,3.63-3.72,6.62-6.45,8.96c-2.73,2.34-5.92,4.06-9.58,5.17C550.78,306.07,546.84,306.62,542.64,306.62z M544.51,275.89
		c0-1.36-0.03-2.53-0.09-3.51c-0.06-0.98-0.17-1.79-0.33-2.45c-0.16-0.6-0.37-0.99-0.63-1.19c-0.27-0.2-0.57-0.3-0.91-0.3
		c-0.34,0-0.61,0.05-0.79,0.15c-0.19,0.1-0.34,0.19-0.47,0.28c0.03,0.51,0.08,0.99,0.14,1.43c0.06,0.44,0.12,0.94,0.16,1.49
		c0.05,0.55,0.09,1.19,0.12,1.92c0.03,0.72,0.05,1.61,0.05,2.66v2.77c0,1.05-0.02,1.94-0.05,2.66c-0.03,0.72-0.07,1.36-0.12,1.92
		s-0.1,1.05-0.16,1.49c-0.06,0.44-0.11,0.92-0.14,1.43c0.12,0.08,0.28,0.18,0.47,0.28c0.19,0.1,0.45,0.15,0.79,0.15
		c0.34,0,0.65-0.1,0.91-0.3c0.26-0.2,0.47-0.6,0.63-1.19c0.16-0.65,0.26-1.47,0.33-2.45c0.06-0.98,0.09-2.15,0.09-3.51V275.89z"/>
	<path class="st7" d="M546.89,311.18c-2.62,0-5.21-0.25-7.76-0.75c-2.56-0.5-4.97-1.26-7.24-2.28c-2.28-1.02-4.37-2.31-6.29-3.87
		c-1.92-1.56-3.57-3.41-4.98-5.53c-1.4-2.13-2.49-4.55-3.27-7.28c-0.78-2.72-1.17-5.76-1.17-9.11c0-4.97,0.84-9.26,2.52-12.88
		c1.68-3.62,3.93-6.61,6.73-8.98c2.8-2.37,6.04-4.12,9.7-5.26c3.66-1.13,7.49-1.7,11.47-1.7c4.74,0,8.99,0.7,12.76,2.11
		c3.77,1.4,6.96,3.37,9.58,5.9c2.62,2.53,4.63,5.56,6.03,9.11c1.4,3.55,2.1,7.45,2.1,11.71c0,5.05-0.79,9.39-2.36,13.03
		c-1.57,3.63-3.72,6.62-6.45,8.96c-2.73,2.34-5.92,4.06-9.58,5.17C555.03,310.63,551.1,311.18,546.89,311.18z M548.76,280.45
		c0-1.36-0.03-2.53-0.09-3.51c-0.06-0.98-0.17-1.79-0.33-2.45c-0.16-0.6-0.37-0.99-0.63-1.19c-0.27-0.2-0.57-0.3-0.91-0.3
		c-0.34,0-0.61,0.05-0.79,0.15c-0.19,0.1-0.34,0.19-0.47,0.28c0.03,0.51,0.08,0.99,0.14,1.43c0.06,0.44,0.12,0.94,0.16,1.49
		c0.05,0.55,0.09,1.19,0.12,1.92c0.03,0.72,0.05,1.61,0.05,2.66v2.77c0,1.05-0.02,1.94-0.05,2.66c-0.03,0.72-0.07,1.36-0.12,1.92
		s-0.1,1.05-0.16,1.49c-0.06,0.44-0.11,0.92-0.14,1.43c0.12,0.08,0.28,0.18,0.47,0.28c0.19,0.1,0.45,0.15,0.79,0.15
		c0.34,0,0.65-0.1,0.91-0.3c0.26-0.2,0.47-0.6,0.63-1.19c0.16-0.65,0.26-1.47,0.33-2.45c0.06-0.98,0.09-2.15,0.09-3.51V280.45z"/>
	<path class="st4" d="M595.66,307.04c-2,0.82-4.4,1.23-7.21,1.23c-1.48,0-2.91-0.17-4.29-0.51c-1.38-0.34-2.59-0.86-3.64-1.55
		c-1.05-0.69-1.88-1.58-2.5-2.64c-0.62-1.06-0.93-2.32-0.93-3.77v-43.97c1.09-1.02,2.63-1.94,4.63-2.77c2-0.82,4.4-1.23,7.21-1.23
		c1.48,0,2.91,0.17,4.29,0.51c1.38,0.34,2.59,0.86,3.64,1.55c1.05,0.7,1.88,1.58,2.5,2.64c0.62,1.06,0.93,2.32,0.93,3.77v43.97
		C599.2,305.29,597.66,306.21,595.66,307.04z"/>
	<path class="st0" d="M624.5,307.04c-4.03,0-7.67-0.65-10.93-1.94c-3.26-1.29-6.05-3.18-8.36-5.66c-2.32-2.48-4.11-5.53-5.36-9.15
		c-1.26-3.62-1.89-7.74-1.89-12.37c0-4.77,0.72-8.92,2.17-12.45c1.44-3.53,3.36-6.48,5.76-8.83c2.4-2.36,5.15-4.11,8.26-5.28
		c3.11-1.16,6.34-1.75,9.67-1.75c3.36,0,6.45,0.47,9.26,1.4s5.21,2.21,7.21,3.83c2,1.62,3.56,3.52,4.67,5.7
		c1.11,2.19,1.67,4.54,1.67,7.07c0,2.02-0.31,3.73-0.91,5.15c-0.61,1.42-1.45,2.58-2.52,3.47c-1.07,0.89-2.36,1.55-3.87,1.98
		c-1.51,0.43-3.15,0.64-4.93,0.64c-1.11,0-2.22-0.16-3.32-0.49c-1.1-0.33-2.11-0.73-3.04-1.21c-0.93-0.48-1.72-1-2.36-1.55
		c-0.65-0.55-1.07-1.04-1.25-1.47c0-0.74,0.01-1.59,0.02-2.55c0.01-0.96,0.05-1.94,0.1-2.94c-0.08-0.03-0.18-0.04-0.3-0.04
		s-0.21,0-0.26,0c-0.4,0-0.71,0.12-0.93,0.36c-0.23,0.24-0.4,0.67-0.54,1.28c-0.13,0.61-0.22,1.44-0.26,2.49s-0.06,2.38-0.06,4
		c0,2.19,0.05,4.05,0.14,5.6c0.09,1.55,0.22,2.81,0.38,3.79s0.36,1.7,0.6,2.15c0.24,0.45,0.5,0.68,0.79,0.68
		c0.26,0,0.5-0.07,0.71-0.21v-3.87c0.93-0.68,2.07-1.29,3.42-1.83c1.35-0.54,2.79-1,4.31-1.38c1.52-0.38,3.09-0.68,4.71-0.89
		c1.62-0.21,3.15-0.32,4.61-0.32c0.72,0.79,1.37,1.8,1.97,3.02s1.11,2.53,1.55,3.94c0.44,1.4,0.79,2.82,1.05,4.26
		c0.26,1.43,0.41,2.75,0.44,3.94c-0.5,1.05-1.37,2.23-2.58,3.55c-1.22,1.32-2.77,2.57-4.65,3.75c-1.88,1.18-4.09,2.16-6.64,2.96
		C630.46,306.64,627.62,307.04,624.5,307.04z"/>
	<path class="st8" d="M627.48,312.34c-4.03,0-7.67-0.65-10.93-1.94c-3.26-1.29-6.05-3.18-8.36-5.66c-2.32-2.48-4.11-5.53-5.36-9.15
		c-1.26-3.62-1.89-7.74-1.89-12.37c0-4.77,0.72-8.92,2.17-12.45c1.44-3.53,3.36-6.48,5.76-8.83c2.4-2.36,5.15-4.11,8.26-5.28
		c3.11-1.16,6.34-1.75,9.67-1.75c3.36,0,6.45,0.47,9.26,1.4s5.21,2.21,7.21,3.83c2,1.62,3.56,3.52,4.67,5.7
		c1.11,2.19,1.67,4.54,1.67,7.07c0,2.02-0.31,3.73-0.91,5.15c-0.61,1.42-1.45,2.58-2.52,3.47c-1.07,0.89-2.36,1.55-3.87,1.98
		c-1.51,0.43-3.15,0.64-4.93,0.64c-1.11,0-2.22-0.16-3.32-0.49c-1.1-0.33-2.11-0.73-3.04-1.21c-0.93-0.48-1.72-1-2.36-1.55
		c-0.65-0.55-1.07-1.04-1.25-1.47c0-0.74,0.01-1.59,0.02-2.55c0.01-0.96,0.05-1.94,0.1-2.94c-0.08-0.03-0.18-0.04-0.3-0.04
		s-0.21,0-0.26,0c-0.4,0-0.71,0.12-0.93,0.36c-0.23,0.24-0.4,0.67-0.54,1.28c-0.13,0.61-0.22,1.44-0.26,2.49s-0.06,2.38-0.06,4
		c0,2.19,0.05,4.05,0.14,5.6c0.09,1.55,0.22,2.81,0.38,3.79s0.36,1.7,0.6,2.15c0.24,0.45,0.5,0.68,0.79,0.68
		c0.26,0,0.5-0.07,0.71-0.21v-3.87c0.93-0.68,2.07-1.29,3.42-1.83c1.35-0.54,2.79-1,4.31-1.38c1.52-0.38,3.09-0.68,4.71-0.89
		c1.62-0.21,3.15-0.32,4.61-0.32c0.72,0.79,1.37,1.8,1.97,3.02s1.11,2.53,1.55,3.94c0.44,1.4,0.79,2.82,1.05,4.26
		c0.26,1.43,0.41,2.75,0.44,3.94c-0.5,1.05-1.37,2.23-2.58,3.55c-1.22,1.32-2.77,2.57-4.65,3.75c-1.88,1.18-4.09,2.16-6.64,2.96
		C633.44,311.95,630.6,312.34,627.48,312.34z"/>
	<path class="st0" d="M690.65,249.34c0.34,0.6,0.66,1.26,0.95,1.98c0.29,0.72,0.53,1.48,0.71,2.26c0.19,0.78,0.33,1.56,0.44,2.34
		c0.11,0.78,0.16,1.51,0.16,2.19c0,2.92-0.53,5.09-1.59,6.51c-1.06,1.42-2.52,2.13-4.37,2.13h-16.01c-0.98,0-1.47,0.41-1.47,1.23
		c0,0.06,0,0.17,0,0.34s0.03,0.28,0.08,0.34h18.99c0.24,0.43,0.46,0.93,0.68,1.51c0.21,0.58,0.39,1.19,0.54,1.83
		s0.26,1.29,0.36,1.96c0.09,0.67,0.14,1.3,0.14,1.89c0,1.7-0.16,3.23-0.48,4.58c-0.32,1.35-0.74,2.46-1.27,3.34h-8.62
		c-2.25,0-4.11,0.06-5.58,0.19c-1.47,0.13-2.63,0.29-3.48,0.49c-0.85,0.2-1.44,0.42-1.79,0.66c-0.34,0.24-0.52,0.49-0.52,0.75
		c0,0.23,0.03,0.44,0.1,0.64c0.07,0.2,0.22,0.37,0.46,0.51c0.66-0.23,1.34-0.43,2.03-0.6c0.69-0.17,1.46-0.3,2.3-0.4
		c0.85-0.1,1.79-0.18,2.84-0.23c1.05-0.06,2.26-0.08,3.64-0.08h11.17c0.29,0.45,0.58,0.96,0.87,1.51c0.29,0.55,0.55,1.19,0.77,1.92
		c0.22,0.72,0.41,1.55,0.56,2.49c0.14,0.94,0.22,2.02,0.22,3.23c0,0.77-0.05,1.58-0.16,2.45c-0.11,0.87-0.27,1.72-0.48,2.58
		c-0.21,0.85-0.49,1.66-0.83,2.43c-0.34,0.77-0.75,1.43-1.23,2h-29.76c-1.56,0-3.02-0.21-4.37-0.62c-1.35-0.41-2.53-1.05-3.54-1.92
		c-1.01-0.87-1.8-1.96-2.38-3.28c-0.58-1.32-0.87-2.9-0.87-4.75v-40.48c0-1.36,1.47-2.36,4.41-2.98c2.94-0.62,7.43-0.94,13.47-0.94
		H690.65z"/>
	<path class="st6" d="M694.4,254.12c0.34,0.6,0.66,1.26,0.95,1.98c0.29,0.72,0.53,1.48,0.71,2.26c0.19,0.78,0.33,1.56,0.44,2.34
		c0.11,0.78,0.16,1.51,0.16,2.19c0,2.92-0.53,5.09-1.59,6.51c-1.06,1.42-2.52,2.13-4.37,2.13h-16.01c-0.98,0-1.47,0.41-1.47,1.23
		c0,0.06,0,0.17,0,0.34s0.03,0.28,0.08,0.34h18.99c0.24,0.43,0.46,0.93,0.68,1.51c0.21,0.58,0.39,1.19,0.54,1.83
		s0.26,1.29,0.36,1.96c0.09,0.67,0.14,1.3,0.14,1.89c0,1.7-0.16,3.23-0.48,4.58c-0.32,1.35-0.74,2.46-1.27,3.34h-8.62
		c-2.25,0-4.11,0.06-5.58,0.19c-1.47,0.13-2.63,0.29-3.48,0.49c-0.85,0.2-1.44,0.42-1.79,0.66c-0.34,0.24-0.52,0.49-0.52,0.75
		c0,0.23,0.03,0.44,0.1,0.64c0.07,0.2,0.22,0.37,0.46,0.51c0.66-0.23,1.34-0.43,2.03-0.6c0.69-0.17,1.46-0.3,2.3-0.4
		c0.85-0.1,1.79-0.18,2.84-0.23c1.05-0.06,2.26-0.08,3.64-0.08h11.17c0.29,0.45,0.58,0.96,0.87,1.51c0.29,0.55,0.55,1.19,0.77,1.92
		c0.22,0.72,0.41,1.55,0.56,2.49c0.14,0.94,0.22,2.02,0.22,3.23c0,0.77-0.05,1.58-0.16,2.45c-0.11,0.87-0.27,1.72-0.48,2.58
		c-0.21,0.85-0.49,1.66-0.83,2.43c-0.34,0.77-0.75,1.43-1.23,2h-29.76c-1.56,0-3.02-0.21-4.37-0.62c-1.35-0.41-2.53-1.05-3.54-1.92
		c-1.01-0.87-1.8-1.96-2.38-3.28c-0.58-1.32-0.87-2.9-0.87-4.75v-40.48c0-1.36,1.47-2.36,4.41-2.98c2.94-0.62,7.43-0.94,13.47-0.94
		H694.4z"/>
</g>
<g id="Layer_6">
</g>
<g id="Layer_2">
</g>
<g id="Layer_7">
	<circle class="st9" cx="636.25" cy="189.87" r="12.59"/>
	<circle class="st9" cx="655.32" cy="194.62" r="12.59"/>
	<line class="st10" x1="626.05" y1="196.38" x2="640.9" y2="217.55"/>
	<line class="st10" x1="640.29" y1="217.49" x2="661.63" y2="204.9"/>
	<g>
		<path class="st9" d="M638.28,205.77c1.18,0.37,2.36,0.74,3.58,0.9c0.39,0.05,0.86,0.05,1.08-0.27c0.02-0.03,0.04-0.07,0.03-0.11
			c-0.01-0.04-0.05-0.06-0.08-0.08c-0.58-0.33-1.28-0.44-1.93-0.3c-0.18,0.04-0.36,0.1-0.5,0.22c-0.14,0.12-0.22,0.32-0.16,0.5
			c0.12,0.35,0.6,0.34,0.92,0.52"/>
		<g>
			<path class="st1" d="M637.62,208.18c0.82,0.26,1.64,0.51,2.48,0.7c0.6,0.14,1.22,0.23,1.83,0.3c0.69,0.07,1.39-0.09,2.01-0.4
				c0.29-0.14,0.57-0.36,0.78-0.61c0.38-0.45,0.64-0.9,0.72-1.49c0.01-0.1,0.05-0.26,0.05-0.39c0.01-0.45-0.15-0.9-0.36-1.29
				c-0.26-0.47-0.72-0.86-1.21-1.08c-0.35-0.16-0.71-0.33-1.09-0.42c-1.52-0.35-3.36-0.16-4.37,1.15c-0.43,0.55-0.65,1.15-0.67,1.86
				c-0.01,0.4,0.1,0.75,0.25,1.11c0.15,0.35,0.32,0.62,0.59,0.91c0.5,0.54,1.18,0.7,1.83,0.96c-0.2-0.08-0.4-0.17-0.6-0.25
				c0.03,0.01,0.07,0.03,0.1,0.05c0.59,0.31,1.27,0.43,1.93,0.25c0.58-0.16,1.21-0.61,1.49-1.15c0.31-0.58,0.46-1.28,0.25-1.93
				c-0.2-0.61-0.57-1.19-1.15-1.49c-0.39-0.2-0.78-0.32-1.19-0.47c0.2,0.08,0.4,0.17,0.6,0.25c-0.07-0.03-0.13-0.06-0.18-0.1
				c0.17,0.13,0.34,0.26,0.51,0.39c-0.03-0.02-0.05-0.04-0.07-0.07c0.13,0.17,0.26,0.34,0.39,0.51c-0.02-0.03-0.04-0.05-0.06-0.08
				c0.08,0.2,0.17,0.4,0.25,0.6c-0.02-0.04-0.03-0.08-0.04-0.12c0.03,0.22,0.06,0.44,0.09,0.66c-0.01-0.05,0-0.09,0-0.14
				c-0.03,0.22-0.06,0.44-0.09,0.66c0.01-0.02,0.01-0.04,0.02-0.07c-0.08,0.2-0.17,0.4-0.25,0.6c0.03-0.07,0.06-0.12,0.11-0.18
				c-0.13,0.17-0.26,0.34-0.39,0.51c0.03-0.03,0.07-0.07,0.1-0.09c-0.17,0.13-0.34,0.26-0.51,0.39c0.06-0.04,0.12-0.07,0.18-0.1
				c-0.2,0.08-0.4,0.17-0.6,0.25c0.14-0.05,0.28-0.08,0.43-0.11c-0.22,0.03-0.44,0.06-0.66,0.09c0.27-0.04,0.53-0.04,0.8,0
				c-0.22-0.03-0.44-0.06-0.66-0.09c0.24,0.04,0.47,0.1,0.69,0.19c-0.2-0.08-0.4-0.17-0.6-0.25c0.12,0.05,0.23,0.1,0.34,0.18
				c-0.3-0.3-0.6-0.6-0.9-0.9c0.01,0.02,0.02,0.03,0.03,0.05c-0.11-0.42-0.23-0.84-0.34-1.26c0,0.02,0,0.04,0,0.06
				c0.11-0.42,0.23-0.84,0.34-1.26c-0.01,0.02-0.02,0.04-0.03,0.05c0.13-0.17,0.26-0.34,0.39-0.51c-0.04,0.05-0.08,0.09-0.12,0.13
				c0.17-0.13,0.34-0.26,0.51-0.39c-0.05,0.03-0.1,0.06-0.15,0.09c0.2-0.08,0.4-0.17,0.6-0.25c-0.08,0.03-0.15,0.05-0.23,0.06
				c0.22-0.03,0.44-0.06,0.66-0.09c-0.19,0.02-0.38,0.01-0.57-0.01c0.22,0.03,0.44,0.06,0.66,0.09c-1.22-0.17-2.41-0.53-3.58-0.9
				c-0.6-0.19-1.39-0.06-1.93,0.25c-0.52,0.3-1.01,0.9-1.15,1.49c-0.15,0.64-0.11,1.36,0.25,1.93
				C636.48,207.59,636.98,207.98,637.62,208.18L637.62,208.18z"/>
		</g>
	</g>
	<path class="st9" d="M656.65,202.24c-2.56,0.61-5.31,1.02-7.62,2.35c-0.3,0.17-0.59,0.36-0.88,0.56c-0.64-0.39-1.46-0.51-2.32-0.13
		c-0.87,0.39-1.71,0.81-2.51,1.32c-0.08,0.05-0.3,0.21-0.54,0.4c-0.76-0.26-1.64-0.17-2.26,0.35c-0.1-0.13-0.21-0.25-0.33-0.36
		c-0.39-0.38-0.89-0.63-1.32-0.96c0.07-0.68-0.12-1.38-0.66-1.82c-0.61-0.5-1.28-1-1.79-1.62c-0.06-0.07-0.11-0.15-0.17-0.22
		c-0.34-1.21-1.26-2.14-2.19-2.94c-0.22-0.19-0.47-0.34-0.73-0.44c0.11-0.84-0.18-1.73-1-2.21c-0.24-0.19-0.54-0.34-0.9-0.43
		c-1.71-0.43-2.79,0.99-2.78,2.36c-0.02,0.13-0.03,0.27-0.02,0.4c-0.04,0.06-0.09,0.11-0.13,0.17c-0.1,0.18-0.15,0.38-0.15,0.59
		c0.02,0.1,0.03,0.2,0.05,0.29c0.06,0.19,0.16,0.36,0.3,0.5c0.22,0.24,0.44,0.49,0.66,0.73c0.11,0.11,0.23,0.19,0.38,0.24
		c0.14,0.07,0.29,0.1,0.45,0.09c0.02,0,0.04-0.01,0.06-0.01c0.08,0.33,0.24,0.63,0.47,0.87c-0.15,0.33-0.15,0.72,0.06,1.04
		c0.42,0.65,0.89,1.28,1.4,1.87c0.16,0.19,0.33,0.37,0.5,0.54c0.05,0.39,0.23,0.77,0.52,1.04c0.13,0.12,0.27,0.22,0.42,0.3
		c-0.03,0.17-0.03,0.35,0.02,0.52c0.09,0.27,0.25,0.46,0.47,0.62c0,0,0,0,0,0c-0.04-0.03-0.09-0.07-0.13-0.1
		c0.08,0.06,0.15,0.14,0.21,0.22c0.12,0.18,0.24,0.36,0.37,0.53c0.13,0.17,0.26,0.35,0.42,0.49c0.09,0.08,0.19,0.16,0.28,0.25
		c0.13,0.2,0.24,0.39,0.41,0.56c0.05,0.04,0.1,0.08,0.15,0.12c-0.05,0.45,0.14,0.93,0.63,1.14c0.14,0.2,0.34,0.35,0.56,0.46
		c0.1,0.16,0.22,0.3,0.36,0.44c0,0.1,0.01,0.2,0.04,0.29c0.1,0.29,0.28,0.51,0.54,0.68c0.02,0.01,0.04,0.03,0.06,0.04
		c0.04,0.04,0.09,0.07,0.13,0.11c0.01,0.05,0.01,0.1,0.03,0.15c0.08,0.19,0.16,0.38,0.27,0.55c0.28,0.49,0.62,0.94,1,1.36
		c0.07,0.07,0.15,0.13,0.24,0.17c0,0.04,0,0.08,0,0.11c-0.04,0.4,0.11,0.81,0.48,1.04c0.13,0.12,0.29,0.22,0.5,0.27
		c0.56,0.14,0.98-0.12,1.21-0.5c0.41-0.05,0.71-0.34,0.85-0.69c0,0,0.01,0,0.01,0c3.3-1.69,6.51-3.54,9.62-5.56
		c0.06-0.04,0.11-0.08,0.15-0.12c0.08-0.02,0.16-0.04,0.23-0.08c0.14-0.02,0.29-0.06,0.43-0.14c1.71-0.96,3.43-1.91,5.14-2.87
		c0.35-0.2,0.56-0.61,0.55-1.02C660.44,204.87,659.14,201.65,656.65,202.24z"/>
	<path class="st11" d="M631.62,200.95c-0.05-0.22-0.16-0.43-0.36-0.58c-0.14-0.18-0.34-0.33-0.62-0.4c-1.25-0.31-1.84,1.35-1,2.01
		c0.09,0.12,0.2,0.21,0.35,0.29c0.08,0.36,0.33,0.68,0.81,0.8C632.12,203.41,632.69,201.51,631.62,200.95z"/>
	<path class="st11" d="M650.42,204.48c-0.12-0.4-0.41-0.66-0.77-0.76c0.11-0.49-0.15-1.07-0.6-1.32c0.45-0.33,0.9-0.66,1.35-0.99
		c0.41-0.31,0.66-0.78,0.51-1.31c-0.14-0.47-0.63-0.86-1.13-0.83c-0.29,0.02-0.58,0.06-0.86,0.11c-0.02-0.16-0.07-0.32-0.15-0.44
		c-0.39-0.54-0.94-0.81-1.61-0.65c-0.1,0.03-0.2,0.07-0.29,0.11c-0.17-0.1-0.36-0.15-0.56-0.13c-0.22,0.02-0.43,0.07-0.63,0.13
		c0.06-0.43-0.07-0.85-0.52-1.17c-0.66-0.47-1.43-0.34-2.18-0.21c-0.08,0.01-0.16,0.03-0.24,0.05c-0.05-0.17-0.14-0.33-0.28-0.47
		c-0.43-0.42-1.2-0.44-1.62,0.02c-0.12,0.13-0.24,0.25-0.37,0.36c-0.01,0.01-0.02,0.01-0.02,0.02c-0.01,0-0.01,0.01-0.02,0.01
		c-0.06,0.05-0.12,0.09-0.19,0.13c-0.29,0.2-0.59,0.37-0.89,0.55c-0.62,0.36-1.22,0.75-1.73,1.25c0,0-0.01-0.01-0.01-0.01
		c-0.13-0.12-0.27-0.2-0.41-0.25c-0.18-0.42-0.58-0.72-1.08-0.72c-0.75,0-1.43,0.52-1.75,1.18c-0.21,0.44-0.31,0.9-0.26,1.35
		c-0.22,0.18-0.45,0.37-0.67,0.55c-0.37,0.31-0.42,1-0.16,1.39c0.27,0.41,0.81,0.68,1.31,0.51c0.38-0.13,0.76-0.26,1.14-0.39
		c-0.2,0.2-0.39,0.4-0.55,0.63c-0.27,0.36-0.14,0.95,0.11,1.27c0.26,0.33,0.79,0.57,1.22,0.4c0.26-0.11,0.52-0.22,0.77-0.34
		c-0.04,0.44,0.02,0.87,0.26,1.28c0.39,0.69,1.19,1.07,1.96,0.91c0.31,0.38,0.63,0.75,0.94,1.13c0.51,0.61,1.44,0.3,1.8-0.26
		c0.14-0.21,0.28-0.42,0.41-0.64c0.07,0.74,0.87,1.42,1.72,0.94c1.67-0.92,3.44-1.57,5.29-1.98
		C650.24,205.77,650.58,205.04,650.42,204.48z"/>
	<g>
		<path class="st9" d="M633.06,200.8c0-0.01,0.01-0.01,0.01-0.02c0,0,0,0,0,0c-0.05-0.04-0.11-0.07-0.14-0.07
			c0.04,0.03,0.08,0.05,0.11,0.08C633.05,200.79,633.06,200.8,633.06,200.8z"/>
		<path class="st9" d="M651.11,204.32c-0.19-0.42-0.57-0.65-0.99-0.67c0.41-0.43,0.76-0.92,1.02-1.45c0.02-0.05,0.05-0.1,0.07-0.15
			c0.07-0.05,0.15-0.1,0.22-0.15c0.51-0.36,0.73-1.02,0.39-1.58c-0.05-0.09-0.12-0.16-0.19-0.23c-0.12-0.48-0.49-0.79-0.92-1.01
			c0-0.01,0-0.03-0.01-0.04c0.56-0.36,1.12-0.72,1.68-1.08c1.26-0.8,0.13-2.63-1.18-1.97c-0.84,0.43-1.67,0.88-2.49,1.34
			c-1.27-0.6-2.64-0.96-4.05-1.1c-0.15-0.08-0.33-0.13-0.53-0.14c-0.6-0.03-1.2,0.06-1.78,0.2c-1.18-0.3-2.51-0.24-3.58-0.07
			c-0.33,0.06-0.57,0.3-0.7,0.6c-0.26-0.22-0.62-0.33-1.03-0.24c-1.11,0.26-2.12,0.85-2.9,1.68c-0.29,0.31-0.38,0.79-0.26,1.19
			c-0.12,0.16-0.23,0.33-0.33,0.5c-0.15,0.23-0.39,0.54-0.47,0.81c0.17,0.12,0.34,0.3-0.01,0.02c-0.03,0.03-0.1,0.11-0.1,0.11
			c-0.1-0.17-0.08-0.22-0.03-0.21c-0.25-0.19-0.52-0.38-0.8-0.52c-0.18-0.09-0.38-0.16-0.57-0.22c-0.05-0.02-0.1-0.03-0.15-0.05
			c-0.04-0.07-0.08-0.14-0.11-0.21c-0.65-1.2-2.35-0.3-2.09,0.91c0.07,0.35,0.22,0.6,0.42,0.79c0.65,1.07,1.45,2,2.72,2.37
			c0.44,0.12,0.89,0.17,1.35,0.17c0,0.53,0.33,1.09,0.86,1.21c0.85,0.19,1.71,0.38,2.54,0.68c0.34,0.12,0.68,0.27,1,0.45
			c0.15,0.08,0.29,0.18,0.43,0.27c0.38,0.58,1,0.99,1.71,1.03c0.18,0.01,0.35-0.01,0.52-0.04c0.01,0.05,0.03,0.1,0.05,0.14
			c0.2,0.44,0.59,0.67,1.07,0.69c0.9,0.04,1.74-0.22,2.56-0.55c0.29,0.28,0.72,0.43,1.1,0.28c1.75-0.68,3.46-1.47,5.11-2.35
			C651.16,205.49,651.34,204.82,651.11,204.32z"/>
	</g>
</g>
</svg>
